<svg width="200" height="200" xmlns="http://www.w3.org/2000/svg">
  <defs>
    <filter id="shadow6">
      <feDropShadow dx="0" dy="0" stdDeviation="3" flood-opacity="0.3"/>
    </filter>
  </defs>
  <circle cx="100" cy="100" r="95" fill="#27ae60" filter="url(#shadow6)"/>
  <circle cx="100" cy="100" r="82" fill="#2ecc71" stroke="#1e8449" stroke-width="2"/>
  <g fill="#27ae60" stroke="#1e8449" stroke-width="1.5">
    <rect x="95" y="8" width="10" height="20" rx="3"/>
    <rect x="95" y="172" width="10" height="20" rx="3"/>
    <rect x="8" y="95" width="20" height="10" rx="3"/>
    <rect x="172" y="95" width="20" height="10" rx="3"/>
    <rect x="28" y="28" width="15" height="15" rx="2" transform="rotate(45 100 100)"/>
    <rect x="157" y="28" width="15" height="15" rx="2" transform="rotate(-45 100 100)"/>
    <rect x="28" y="157" width="15" height="15" rx="2" transform="rotate(-45 100 100)"/>
    <rect x="157" y="157" width="15" height="15" rx="2" transform="rotate(45 100 100)"/>
    <rect x="45" y="18" width="8" height="12" rx="2"/>
    <rect x="147" y="18" width="8" height="12" rx="2"/>
    <rect x="45" y="170" width="8" height="12" rx="2"/>
    <rect x="147" y="170" width="8" height="12" rx="2"/>
    <rect x="18" y="45" width="12" height="8" rx="2"/>
    <rect x="170" y="45" width="12" height="8" rx="2"/>
    <rect x="18" y="147" width="12" height="8" rx="2"/>
    <rect x="170" y="147" width="12" height="8" rx="2"/>
  </g>
  <circle cx="100" cy="100" r="55" fill="#2ecc71" stroke="#1e8449" stroke-width="3"/>
  <circle cx="100" cy="100" r="35" fill="#27ae60"/>
  <circle cx="100" cy="100" r="18" fill="#1e8449"/>
</svg>
